# xmcd
#
# Track frame offsets: 
#        182
#        14195
#        29207
#        42197
#        53462
#        69530
#        84442
#        97522
#        112280
#        129097
#        151167
#        164635
#
# Disc length: 2339 seconds
#
# Revision: 1
# Processed by: cddbd v1.5.2PL0 Copyright (c) Steve Scherf et al.
# Submitted via: ExactAudioCopy v0.95b4
#
DISCID=9709210c
DTITLE=Mel Tormé - Lulu's Back In Town (with The Marty Paich Dek-tette
DTITLE=)
DYEAR=1957
DGENRE=Jazz
TTITLE0=Lulu's Back In Town
TTITLE1=When The Sun Comes Out
TTITLE2=I Love To Watch The Moonlight
TTITLE3=Fascinating Rhythm
TTITLE4=The Blues
TTITLE5=The Carioca
TTITLE6=The Lady Is A Tramp
TTITLE7=I Like To Recognize The Tune
TTITLE8=Keeping Myself For You
TTITLE9=Lullaby Of Birdland
TTITLE10=When April Comes Again
TTITLE11=Sing For Your Supper
EXTD=
EXTT0=
EXTT1=
EXTT2=
EXTT3=
EXTT4=
EXTT5=
EXTT6=
EXTT7=
EXTT8=
EXTT9=
EXTT10=
EXTT11=
PLAYORDER=
